<svg width="23" height="24" viewBox="0 0 23 24" fill="none" xmlns="http://www.w3.org/2000/svg">
<path d="M22.5625 0.726562V8.03906C22.5625 8.85156 20.9375 9.66406 20.9375 9.66406C20.9375 15.3516 21.75 18.6016 21.75 20.2266C21.75 21.0391 21.75 21.8516 20.9375 22.6641C20.125 23.4766 20.125 23.4766 19.3125 22.6641C18.5 21.8516 18.5 21.0391 18.5 20.2266C18.5 18.6016 19.3125 15.3516 19.3125 9.66406C19.3125 9.66406 17.6875 8.85156 17.6875 8.03906V0.726562H18.6016V5.60156H19.668V0.726562H20.582V5.60156H21.6484V0.726562H22.5625ZM12.3047 0.726562C13.1172 0.726562 13.1172 1.53906 13.1172 1.53906V15.3516H13.0969C13.3305 17.6773 13.625 19.2516 13.625 20.2266C13.625 21.0391 13.625 21.8516 12.8125 22.6641C12 23.4766 12 23.4766 11.1875 22.6641C10.375 21.8516 10.375 21.0391 10.375 20.2266C10.375 19.1043 10.7609 17.2051 11.0047 14.2598C10.3801 12.7312 9.86719 10.7914 9.86719 8.85156C9.86719 6.41406 11.1773 1.86406 12.3047 0.726562ZM3.875 0.726562C4.73695 0.726563 5.5636 1.24018 6.1731 2.15442C6.78259 3.06866 7.125 4.30863 7.125 5.60156C7.12416 6.68 6.88494 7.72758 6.44479 8.58031C6.00464 9.43303 5.38842 10.0428 4.69258 10.3141C4.74844 15.6004 5.5 18.6625 5.5 20.2266C5.5 21.0391 5.5 21.8516 4.6875 22.6641C3.875 23.4766 3.875 23.4766 3.0625 22.6641C2.25 21.8516 2.25 21.0391 2.25 20.2266C2.25 18.6625 3.00156 15.6004 3.05742 10.3191C2.36102 10.0476 1.74438 9.43713 1.30418 8.58338C0.863972 7.72962 0.625095 6.68087 0.625 5.60156C0.625 4.30863 0.967411 3.06866 1.5769 2.15442C2.1864 1.24018 3.01305 0.726563 3.875 0.726562Z" fill="#FBAB10"/>
</svg>
