<svg width="37" height="37" viewBox="0 0 37 37" fill="none" xmlns="http://www.w3.org/2000/svg">
<g id="el:group" filter="url(#filter0_i_203_1320)">
<path id="Vector" d="M18.4349 5.70288C15.3191 5.70288 12.7932 8.65185 12.7932 12.2896C12.7932 14.8125 14.0081 17.0036 15.7922 18.11L13.7234 19.0688L8.21801 21.6221C7.68616 21.8881 7.42072 22.339 7.42072 22.9773V29.0405C7.46447 29.7986 7.91931 30.5051 8.65675 30.5171H28.2428C29.0847 30.4439 29.5106 29.7657 29.5189 29.0405V22.9773C29.5189 22.339 29.2535 21.8881 28.7216 21.6221L23.4156 19.0688L21.2105 18.0241C22.9213 16.8928 24.0766 14.7491 24.0766 12.2896C24.0765 8.65185 21.5507 5.70288 18.4349 5.70288ZM9.33489 8.01912C7.99402 8.07005 6.93136 8.65025 6.124 9.57474C5.23096 10.6878 4.79559 12.0094 4.78718 13.324C4.84202 15.268 5.71185 17.1084 7.26035 18.071L1.07801 20.944C0.652499 21.1035 0.439941 21.4758 0.439941 22.0609V26.927C0.473167 27.5724 0.808254 28.1148 1.43655 28.1241H5.54551V22.9773C5.6135 21.6012 6.25968 20.489 7.42072 19.9463L11.5286 17.992C11.8477 17.8058 12.1536 17.5528 12.4461 17.2337C10.7524 14.6204 10.5172 11.4904 11.6088 8.73739C10.8988 8.3029 10.101 8.02368 9.33489 8.01912ZM27.6838 8.01912C26.8069 8.03749 25.9966 8.36039 25.3309 8.81641C26.3927 11.5943 26.0998 14.7263 24.5324 17.1535C24.8782 17.5524 25.2381 17.8583 25.6104 18.0711L29.559 19.9463C30.7619 20.606 31.3822 21.7281 31.3941 22.9773V28.1241H35.6222C36.3175 28.0641 36.6139 27.5094 36.6199 26.927V22.0609C36.6199 21.529 36.4074 21.1568 35.9819 20.944L29.8786 18.0309C31.4614 16.8639 32.2562 15.1148 32.2716 13.324C32.2295 11.9066 31.7965 10.5905 30.9347 9.57474C30.0343 8.59791 28.9174 8.02947 27.6838 8.01912Z" fill="#FBAB10"/>
</g>
<defs>
<filter id="filter0_i_203_1320" x="0.439941" y="0.0200195" width="36.1801" height="40.1801" filterUnits="userSpaceOnUse" color-interpolation-filters="sRGB">
<feFlood flood-opacity="0" result="BackgroundImageFix"/>
<feBlend mode="normal" in="SourceGraphic" in2="BackgroundImageFix" result="shape"/>
<feColorMatrix in="SourceAlpha" type="matrix" values="0 0 0 0 0 0 0 0 0 0 0 0 0 0 0 0 0 0 127 0" result="hardAlpha"/>
<feOffset dy="4"/>
<feGaussianBlur stdDeviation="2"/>
<feComposite in2="hardAlpha" operator="arithmetic" k2="-1" k3="1"/>
<feColorMatrix type="matrix" values="0 0 0 0 0 0 0 0 0 0 0 0 0 0 0 0 0 0 0.25 0"/>
<feBlend mode="normal" in2="shape" result="effect1_innerShadow_203_1320"/>
</filter>
</defs>
</svg>
