<svg width="35" height="35" viewBox="0 0 35 35" fill="none" xmlns="http://www.w3.org/2000/svg">
<g id="Group">
<path id="Vector" d="M25.2583 13.8657L29.8775 18.4849C30.627 19.2245 31.2229 20.1051 31.6307 21.0759C32.0386 22.0467 32.2503 23.0886 32.2539 24.1416C32.2574 25.1945 32.0526 26.2378 31.6513 27.2113C31.2499 28.1849 30.66 29.0694 29.9154 29.814C29.1708 30.5585 28.2863 31.1485 27.3128 31.5498C26.3393 31.9511 25.296 32.1559 24.243 32.1524C23.19 32.1489 22.1481 31.9371 21.1773 31.5293C20.2065 31.1214 19.326 30.5256 18.5864 29.776L17.0476 28.2372C16.8396 28.0365 16.6736 27.7963 16.5593 27.5307C16.4451 27.2651 16.3849 26.9793 16.3822 26.6902C16.3796 26.4011 16.4345 26.1143 16.5439 25.8467C16.6533 25.579 16.8148 25.3358 17.0192 25.1313C17.2235 24.9267 17.4666 24.7649 17.7341 24.6553C18.0017 24.5457 18.2884 24.4905 18.5775 24.4929C18.8666 24.4952 19.1524 24.5552 19.4181 24.6692C19.6838 24.7832 19.9242 24.9489 20.1252 25.1568L21.6668 26.697C22.3485 27.3726 23.2701 27.7506 24.2299 27.7484C25.1896 27.7462 26.1094 27.3638 26.788 26.6851C27.4665 26.0063 27.8486 25.0864 27.8506 24.1267C27.8525 23.1669 27.4742 22.2454 26.7985 21.5639L22.1793 16.9447C21.68 16.4452 21.0458 16.1023 20.3545 15.9579C19.6632 15.8135 18.9448 15.8739 18.2874 16.1318C18.0522 16.2247 17.8344 16.3205 17.6283 16.4163L16.9547 16.7313C16.0547 17.1378 15.3622 17.312 14.4811 16.4323C13.2152 15.1664 13.5433 13.9978 15.0864 12.9338C16.6238 11.8766 18.4828 11.391 20.3408 11.5612C22.1988 11.7314 23.9386 12.5468 25.2583 13.8657ZM16.5337 5.14122L18.0725 6.67999C18.4694 7.09048 18.6891 7.64042 18.6844 8.21136C18.6797 8.7823 18.451 9.32855 18.0474 9.73247C17.6439 10.1364 17.0979 10.3656 16.5269 10.3709C15.956 10.3761 15.4058 10.1569 14.995 9.76042L13.4548 8.22166C13.1201 7.87494 12.7197 7.59835 12.277 7.40803C11.8343 7.2177 11.3581 7.11745 10.8762 7.11313C10.3943 7.1088 9.9164 7.20049 9.47033 7.38285C9.02427 7.5652 8.61899 7.83456 8.27814 8.17521C7.9373 8.51587 7.66771 8.921 7.4851 9.36696C7.3025 9.81291 7.21054 10.2908 7.21459 10.7727C7.21864 11.2545 7.31862 11.7308 7.50869 12.1736C7.69877 12.6164 7.97513 13.017 8.32166 13.3518L12.9409 17.9711C13.4401 18.4705 14.0743 18.8135 14.7656 18.9579C15.4569 19.1023 16.1753 19.0419 16.8328 18.784C17.068 18.6911 17.2857 18.5953 17.4918 18.4995L18.1654 18.1844C19.0654 17.778 19.7593 17.6038 20.6391 18.4835C21.9049 19.7493 21.5768 20.9179 20.0337 21.982C18.4963 23.0392 16.6373 23.5248 14.7793 23.3546C12.9213 23.1843 11.1815 22.369 9.86188 21.05L5.24267 16.4308C4.49312 15.6913 3.89726 14.8107 3.48942 13.8399C3.08157 12.8691 2.86978 11.8272 2.86626 10.7742C2.86273 9.72123 3.06753 8.67794 3.46886 7.70442C3.8702 6.73091 4.46014 5.8464 5.20472 5.10181C5.9493 4.35723 6.83381 3.76729 7.80733 3.36596C8.78085 2.96462 9.82413 2.75982 10.8771 2.76335C11.9301 2.76688 12.972 2.97866 13.9428 3.38651C14.9136 3.79436 15.7942 4.39167 16.5337 5.14122Z" fill="#FBAB10"/>
</g>
</svg>
