<svg width="31" height="32" viewBox="0 0 31 32" fill="none" xmlns="http://www.w3.org/2000/svg">
<g id="bi:messenger" filter="url(#filter0_i_203_1306)">
<path id="Vector" d="M0.0799561 15.6477C0.0799561 7.0585 6.80835 0.699951 15.49 0.699951C24.1716 0.699951 30.9 7.0585 30.9 15.6477C30.9 24.2368 24.1716 30.5954 15.49 30.5954C13.9297 30.5954 12.4349 30.3892 11.0288 30.004C10.7561 29.9281 10.4656 29.9485 10.2063 30.0618L7.14737 31.414C6.96262 31.4955 6.76069 31.5304 6.55932 31.5155C6.35794 31.5007 6.16329 31.4367 5.99247 31.329C5.82165 31.2213 5.6799 31.0734 5.57966 30.8981C5.47942 30.7228 5.42377 30.5256 5.41759 30.3237L5.33284 27.5827C5.32698 27.4159 5.28725 27.2519 5.21605 27.1009C5.14486 26.9499 5.04369 26.815 4.9187 26.7043C1.92145 24.023 0.0799561 20.1397 0.0799561 15.6477ZM10.7629 12.8373L6.23625 20.0183C5.80285 20.7079 6.64847 21.4842 7.29761 20.993L12.1614 17.3023C12.3214 17.1808 12.5166 17.1147 12.7174 17.114C12.9183 17.1133 13.114 17.1781 13.2748 17.2984L16.8749 19.999C17.1304 20.1906 17.4227 20.3272 17.7336 20.4001C18.0444 20.4731 18.367 20.4808 18.681 20.4229C18.995 20.365 19.2936 20.2427 19.5579 20.0636C19.8223 19.8846 20.0467 19.6527 20.217 19.3826L24.7437 12.2016C25.179 11.512 24.3314 10.7357 23.6823 11.2269L18.8185 14.9176C18.6585 15.0391 18.4634 15.1052 18.2625 15.1059C18.0616 15.1066 17.8659 15.0418 17.7051 14.9215L14.105 12.2189C13.8495 12.0274 13.5572 11.8908 13.2463 11.8179C12.9355 11.7449 12.6129 11.7371 12.2989 11.795C11.9849 11.853 11.6864 11.9753 11.422 12.1543C11.1576 12.3334 10.9332 12.5672 10.7629 12.8373Z" fill="#FBAB10"/>
</g>
<defs>
<filter id="filter0_i_203_1306" x="0.0799561" y="0.699951" width="30.8199" height="34.8199" filterUnits="userSpaceOnUse" color-interpolation-filters="sRGB">
<feFlood flood-opacity="0" result="BackgroundImageFix"/>
<feBlend mode="normal" in="SourceGraphic" in2="BackgroundImageFix" result="shape"/>
<feColorMatrix in="SourceAlpha" type="matrix" values="0 0 0 0 0 0 0 0 0 0 0 0 0 0 0 0 0 0 127 0" result="hardAlpha"/>
<feOffset dy="4"/>
<feGaussianBlur stdDeviation="2"/>
<feComposite in2="hardAlpha" operator="arithmetic" k2="-1" k3="1"/>
<feColorMatrix type="matrix" values="0 0 0 0 0 0 0 0 0 0 0 0 0 0 0 0 0 0 0.25 0"/>
<feBlend mode="normal" in2="shape" result="effect1_innerShadow_203_1306"/>
</filter>
</defs>
</svg>
