<svg width="33" height="32" viewBox="0 0 33 32" fill="none" xmlns="http://www.w3.org/2000/svg">
<g id="Group">
<g id="Mask group">
<mask id="mask0_203_1363" style="mask-type:luminance" maskUnits="userSpaceOnUse" x="0" y="0" width="33" height="32">
<g id="Group_2">
<path id="Vector" d="M0 0H33V32H0V0Z" fill="white"/>
<g id="Group_3">
<path id="Vector_2" d="M10.1538 18.4615C11.5558 18.4615 12.6923 17.3595 12.6923 16C12.6923 14.6405 11.5558 13.5385 10.1538 13.5385C8.75186 13.5385 7.61536 14.6405 7.61536 16C7.61536 17.3595 8.75186 18.4615 10.1538 18.4615Z" fill="black"/>
<path id="Vector_3" d="M16.4999 18.4615C17.9019 18.4615 19.0384 17.3595 19.0384 16C19.0384 14.6405 17.9019 13.5385 16.4999 13.5385C15.098 13.5385 13.9615 14.6405 13.9615 16C13.9615 17.3595 15.098 18.4615 16.4999 18.4615Z" fill="black"/>
<path id="Vector_4" d="M22.8461 18.4615C24.2481 18.4615 25.3846 17.3595 25.3846 16C25.3846 14.6405 24.2481 13.5385 22.8461 13.5385C21.4442 13.5385 20.3077 14.6405 20.3077 16C20.3077 17.3595 21.4442 18.4615 22.8461 18.4615Z" fill="black"/>
</g>
</g>
</mask>
<g mask="url(#mask0_203_1363)">
<path id="Vector_5" d="M16.5 32C25.6127 32 33 24.8366 33 16C33 7.16344 25.6127 0 16.5 0C7.3873 0 0 7.16344 0 16C0 24.8366 7.3873 32 16.5 32Z" fill="#FFD233"/>
</g>
</g>
</g>
</svg>
